# xmcd
#
# Track frame offsets: 
#        150
#        18900
#        34713
#        52959
#        70789
#        91209
#        113714
#        130382
#        147529
#        162513
#        185315
#        203609
#
# Disc length: 2919 seconds
#
# Revision: 0
# Processed by: cddbd v1.5.2PL0 Copyright (c) Steve Scherf et al.
# Submitted via: ExactAudioCopy v1.0b3
#
DISCID=9f0b650c
DTITLE=Sarai - Desde Mi Interior
DYEAR=2008
DGENRE=Contemporánea Internacional
TTITLE0=Sarai (con 1Detantos) - Suena El Reloj
TTITLE1=Pierdo Mi Sentido
TTITLE2=Sarai (con Jose Cañal) - Tu Das Color a mi Ilusión
TTITLE3=Es lo Mejor
TTITLE4=Sarai (con QueVoz) - No Puede Ser
TTITLE5=Quiero Junto a Ti Volver
TTITLE6=Dale a la Vida Sabor
TTITLE7=Sarai (con 1Detantos) - Clap Your Hands
TTITLE8=Vamos
TTITLE9=Sarai (con Coro Gospel Barcelona) - Yo amo a Dios
TTITLE10=Mi Oración
TTITLE11=Hearing the Clock
EXTD=
EXTT0=
EXTT1=
EXTT2=
EXTT3=
EXTT4=
EXTT5=
EXTT6=
EXTT7=
EXTT8=
EXTT9=
EXTT10=
EXTT11=
PLAYORDER=
